<?xml version="1.0" encoding="UTF-8"?>
<svg width="34px" height="21px" viewBox="0 0 34 21" version="1.1" xmlns="http://www.w3.org/2000/svg" xmlns:xlink="http://www.w3.org/1999/xlink">
    <!-- Generator: Sketch 50.2 (55047) - http://www.bohemiancoding.com/sketch -->
    <title>FIN</title>
    <desc>Created with Sketch.</desc>
    <defs></defs>
    <g id="Page-1" stroke="none" stroke-width="1" fill="none" fill-rule="evenodd">
        <g id="breakdown-of-reserved-funds" transform="translate(-616.000000, -253.000000)">
            <g id="spankCard" transform="translate(469.000000, 109.779042)">
                <g id="FIN" transform="translate(146.613623, 143.599999)">
                    <g>
                        <path d="M11.5718352,9.38446649 C12.6559611,9.58811447 13.2129983,10.3188513 13.2129983,11.4149566 C13.2129983,13.068099 12.404396,13.8587323 10.1822372,13.8587323 L7.25928978,13.8587323 C7.15147614,13.8587323 7.07960039,13.7868566 7.07960039,13.6790429 L7.07960039,5.65291681 C7.07960039,5.54510318 7.15147614,5.47322742 7.25928978,5.47322742 L10.3140094,5.47322742 C12.0809551,5.47322742 12.7757541,6.43756048 12.7757541,7.6534587 C12.7757541,8.53393671 12.3864271,9.16284958 11.5718352,9.38446649 Z M10.9788602,7.90502384 C10.9788602,7.35397638 10.7871915,7.17428699 10.13432,7.17428699 L9.01425616,7.17428699 L9.01425616,8.69565716 L10.13432,8.69565716 C10.8051604,8.69565716 10.9788602,8.48601954 10.9788602,7.90502384 Z M10.2601026,12.1576728 C11.014798,12.1576728 11.2843321,11.8462111 11.2843321,11.1933397 C11.2843321,10.5344786 10.9908395,10.2889031 10.2601026,10.2889031 L9.01425616,10.2889031 L9.01425616,12.1576728 L10.2601026,12.1576728 Z M17.4836149,5.35343449 C19.7656702,5.35343449 20.5802621,6.34771579 20.5802621,9.32457003 L20.5802621,10.0493172 C20.5802621,13.0441404 19.7656702,14.0384217 17.4836149,14.0384217 C15.2015596,14.0384217 14.3869677,13.0441404 14.3869677,10.0493172 L14.3869677,9.32457003 C14.3869677,6.34771579 15.2015596,5.35343449 17.4836149,5.35343449 Z M17.4836149,7.21621451 C16.5731887,7.21621451 16.2557374,7.43184178 16.2557374,9.34253897 L16.2557374,10.0493172 C16.2557374,11.9600144 16.5731887,12.1756417 17.4836149,12.1756417 C18.3940411,12.1756417 18.7114924,11.9600144 18.7114924,10.0493172 L18.7114924,9.34253897 C18.7114924,7.43184178 18.3940411,7.21621451 17.4836149,7.21621451 Z M24.8508787,5.35343449 C27.132934,5.35343449 27.9475259,6.34771579 27.9475259,9.32457003 L27.9475259,10.0493172 C27.9475259,13.0441404 27.132934,14.0384217 24.8508787,14.0384217 C22.5688235,14.0384217 21.7542315,13.0441404 21.7542315,10.0493172 L21.7542315,9.32457003 C21.7542315,6.34771579 22.5688235,5.35343449 24.8508787,5.35343449 Z M24.8508787,7.21621451 C23.9404525,7.21621451 23.6230012,7.43184178 23.6230012,9.34253897 L23.6230012,10.0493172 C23.6230012,11.9600144 23.9404525,12.1756417 24.8508787,12.1756417 C25.761305,12.1756417 26.0787562,11.9600144 26.0787562,10.0493172 L26.0787562,9.34253897 C26.0787562,7.43184178 25.761305,7.21621451 24.8508787,7.21621451 Z" id="BOO" fill="#55a451"></path>
                        <rect id="Rectangle" stroke="#FFFFFF" stroke-width="1.70400002" opacity="0.75" x="1.63482297" y="1.36827406" width="31.4639469" height="17.9621425" rx="2.62415996"></rect>
                    </g>
                </g>
            </g>
        </g>
    </g>
</svg>