<?xml version="1.0" encoding="UTF-8"?>
<svg width="29px" height="17px" viewBox="0 0 29 17" version="1.1" xmlns="http://www.w3.org/2000/svg" xmlns:xlink="http://www.w3.org/1999/xlink">
    <!-- Generator: Sketch 49.2 (51160) - http://www.bohemiancoding.com/sketch -->
    <title>FIN</title>
    <desc>Created with Sketch.</desc>
    <defs></defs>
    <g id="FIN" stroke="none" stroke-width="1" fill="none" fill-rule="evenodd">
        <g>
            <path d="M10.6764095,5.22768927 C10.7662542,5.22768927 10.8261507,5.28758573 10.8261507,5.37743042 L10.8261507,6.4954977 C10.8261507,6.58534239 10.7662542,6.64523885 10.6764095,6.64523885 L7.74647431,6.64523885 L7.74647431,8.04781432 L10.4468064,8.04781432 C10.5366511,8.04781432 10.5965476,8.10771078 10.5965476,8.19755547 L10.5965476,9.32061412 C10.5965476,9.41045881 10.5366511,9.47035527 10.4468064,9.47035527 L7.74647431,9.47035527 L7.74647431,12.0658686 C7.74647431,12.1557133 7.68657785,12.2156097 7.59673316,12.2156097 L6.28400238,12.2156097 C6.19415769,12.2156097 6.13426123,12.1557133 6.13426123,12.0658686 L6.13426123,5.37743042 C6.13426123,5.28758573 6.19415769,5.22768927 6.28400238,5.22768927 L10.6764095,5.22768927 Z M16.8157958,6.64523885 L15.3782807,6.64523885 L15.3782807,10.7980602 L16.8157958,10.7980602 C16.9056405,10.7980602 16.965537,10.8579566 16.965537,10.9478013 L16.965537,12.0658686 C16.965537,12.1557133 16.9056405,12.2156097 16.8157958,12.2156097 L12.3235612,12.2156097 C12.2337165,12.2156097 12.1738201,12.1557133 12.1738201,12.0658686 L12.1738201,10.9478013 C12.1738201,10.8579566 12.2337165,10.7980602 12.3235612,10.7980602 L13.7610763,10.7980602 L13.7610763,6.64523885 L12.3235612,6.64523885 C12.2337165,6.64523885 12.1738201,6.58534239 12.1738201,6.4954977 L12.1738201,5.37743042 C12.1738201,5.28758573 12.2337165,5.22768927 12.3235612,5.22768927 L16.8157958,5.22768927 C16.9056405,5.22768927 16.965537,5.28758573 16.965537,5.37743042 L16.965537,6.4954977 C16.965537,6.58534239 16.9056405,6.64523885 16.8157958,6.64523885 Z M23.0400354,5.22768927 C23.1298801,5.22768927 23.1897765,5.28758573 23.1897765,5.37743042 L23.1897765,12.0658686 C23.1897765,12.1557133 23.1298801,12.2156097 23.0400354,12.2156097 L21.6374599,12.2156097 C21.557598,12.2156097 21.4877188,12.1856615 21.4577705,12.1157823 L19.6558853,8.01287472 L19.6558853,12.0658686 C19.6558853,12.1557133 19.5959889,12.2156097 19.5061442,12.2156097 L18.3780942,12.2156097 C18.2882495,12.2156097 18.228353,12.1557133 18.228353,12.0658686 L18.228353,5.37743042 C18.228353,5.28758573 18.2882495,5.22768927 18.3780942,5.22768927 L19.7756783,5.22768927 C19.8555402,5.22768927 19.9304108,5.2576375 19.9553676,5.32751671 L21.7622442,9.44040704 L21.7622442,5.37743042 C21.7622442,5.28758573 21.8221407,5.22768927 21.9119854,5.22768927 L23.0400354,5.22768927 Z" fill="#d0021b"></path>
            <rect id="Rectangle" stroke="#d0021b" stroke-width="1.41999996" x="1.36235242" y="1.14022834" width="26.2199547" height="14.9684515" rx="2.18679988"></rect>
        </g>
    </g>
</svg>
