<?xml version="1.0" encoding="UTF-8"?>
<svg width="34px" height="20px" viewBox="0 0 34 20" version="1.1" xmlns="http://www.w3.org/2000/svg" xmlns:xlink="http://www.w3.org/1999/xlink">
  <!-- Generator: Sketch 49.3 (51167) - http://www.bohemiancoding.com/sketch -->
  <title>FIN</title>
  <desc>Created with Sketch.</desc>
  <defs></defs>
  <g id="Page-1" stroke="none" stroke-width="1" fill="none" fill-rule="evenodd">
    <g id="FIN-flow-3" transform="translate(-619.000000, -322.000000)">
      <g id="FIN" transform="translate(618.318396, 321.599999)">
        <g>
          <path d="M12.9135159,5.47322742 C13.0213296,5.47322742 13.0932053,5.54510318 13.0932053,5.65291681 L13.0932053,10.7860437 C13.0932053,13.0441404 12.1348619,14.0384217 10.1163511,14.0384217 C8.11580921,14.0384217 7.13949685,13.0441404 7.13949685,10.7860437 L7.13949685,5.65291681 C7.13949685,5.54510318 7.21137261,5.47322742 7.31918624,5.47322742 L8.89446323,5.47322742 C9.00227687,5.47322742 9.07415262,5.54510318 9.07415262,5.65291681 L9.07415262,10.7740644 C9.07415262,11.6305839 9.36165565,12.1756417 10.1163511,12.1756417 C10.8890155,12.1756417 11.1585496,11.6305839 11.1585496,10.7740644 L11.1585496,5.65291681 C11.1585496,5.54510318 11.2304253,5.47322742 11.3382389,5.47322742 L12.9135159,5.47322742 Z M17.3758013,8.78550186 C18.9510783,9.07899453 20.6102103,9.63004199 20.6102103,11.4688634 C20.6102103,13.2597677 19.532074,14.0384217 17.4177288,14.0384217 C15.4471351,14.0384217 14.4768124,13.3675813 14.3270713,11.6904803 C14.315092,11.5706874 14.3869677,11.492822 14.4947814,11.492822 L15.9382861,11.492822 C16.0460998,11.492822 16.0880273,11.5587081 16.1179755,11.6545425 C16.2737063,12.085797 16.6570437,12.2954346 17.4177288,12.2954346 C18.2203414,12.2954346 18.7174821,12.0678281 18.7174821,11.5347495 C18.7174821,10.9777124 18.5377927,10.6782301 17.3758013,10.4506235 C15.890369,10.1571309 14.4528538,9.5401973 14.4528538,7.85111702 C14.4528538,6.30578826 15.3932283,5.35343449 17.3758013,5.35343449 C19.1427469,5.35343449 20.1969247,6.02427489 20.3586452,7.6414794 C20.3706244,7.76127233 20.2987487,7.85710667 20.1909351,7.85710667 L18.8552439,7.85710667 C18.7474303,7.85710667 18.7055028,7.77325162 18.6755545,7.67741728 C18.5617512,7.33001779 18.1844035,7.07845264 17.4057495,7.07845264 C16.6929816,7.07845264 16.3336028,7.40788319 16.3336028,7.85111702 C16.3336028,8.21049581 16.3096442,8.58185388 17.3758013,8.78550186 Z M24.7849926,5.47322742 C27.3305923,5.47322742 28.0912774,7.26413168 28.0912774,9.66597987 C28.0912774,12.0678281 27.3305923,13.8587323 24.7849926,13.8587323 L22.0537139,13.8587323 C21.9459002,13.8587323 21.8740245,13.7868566 21.8740245,13.6790429 L21.8740245,5.65291681 C21.8740245,5.54510318 21.9459002,5.47322742 22.0537139,5.47322742 L24.7849926,5.47322742 Z M24.7849926,12.1576728 C25.9529736,12.1576728 26.1206837,11.2172983 26.1206837,9.66597987 C26.1206837,8.11466146 25.9529736,7.17428699 24.7849926,7.17428699 L23.8086802,7.17428699 L23.8086802,12.1576728 L24.7849926,12.1576728 Z" id="USD" fill="#FFFFFF"></path>
          <rect id="Rectangle" stroke="#FFFFFF" stroke-width="1.70400002" opacity="0.75" x="1.63482297" y="1.36827406" width="31.4639469" height="17.9621425" rx="2.62415996"></rect>
        </g>
      </g>
    </g>
  </g>
</svg>
